<svg xmlns="http://www.w3.org/2000/svg" viewBox="0 0 400 400"><defs><linearGradient id="s" x1="0" y1="0" x2="1" y2="1"><stop offset="0" stop-color="#1A365D"/><stop offset="1" stop-color="#0F766E"/></linearGradient><linearGradient id="p" x1="0" y1="0" x2="0" y2="1"><stop offset="0" stop-color="#2DD4BF"/><stop offset="1" stop-color="#0D9488"/></linearGradient><linearGradient id="l" x1="0" y1="1" x2="1" y2="0"><stop offset="0" stop-color="#2DD4BF" stop-opacity="0.1"/><stop offset="0.5" stop-color="#2DD4BF" stop-opacity="0.9"/><stop offset="1" stop-color="#2DD4BF" stop-opacity="0.1"/></linearGradient></defs><path d="M 200 120 L 320 150 C 320 250 260 320 200 360 C 140 320 80 250 80 150 Z" fill="url(#s)" stroke="#2DD4BF" stroke-width="10" stroke-linejoin="round"/><path d="M 110 165 C 150 250 250 250 290 165" fill="none" stroke="url(#l)" stroke-width="12"/><circle cx="160" cy="220" r="9" fill="#2DD4BF"/><circle cx="240" cy="220" r="9" fill="#2DD4BF"/><circle cx="200" cy="280" r="9" fill="#2DD4BF"/><path d="M 200 40 C 165 40 140 65 140 100 C 140 145 200 205 200 205 C 200 205 260 145 260 100 C 260 65 235 40 200 40 Z" fill="url(#p)" stroke="#ffffff" stroke-width="10" stroke-linejoin="round"/><circle cx="200" cy="95" r="20" fill="#1A365D"/></svg>
